/* XPM */
static char *ac193b5e00954104e2337ba59c62ff8akuz6LyGEHuxjkSKh[] = {
/* columns rows colors chars-per-pixel */
"50 50 168 2 ",
"   c #302C2D",
".  c #2A2A09",
"X  c #3C3C0F",
"o  c #35350D",
"O  c #3D3D11",
"+  c #403F14",
"@  c #336D33",
"#  c #444213",
"$  c #4A4613",
"%  c #4B4916",
"&  c #4C4B1A",
"*  c #504C15",
"=  c #625D1F",
"-  c #4E5024",
";  c #595320",
":  c #555B2D",
">  c #5B5D2D",
",  c #5E5D30",
"<  c #615E20",
"1  c #5D6232",
"2  c #7D762D",
"3  c #636633",
"4  c #666935",
"5  c #6B6D36",
"6  c #6B6C3C",
"7  c #706F35",
"8  c #716D3B",
"9  c #6E7037",
"0  c #6F7038",
"q  c #707035",
"w  c #7A7635",
"e  c #74753A",
"r  c #79763F",
"t  c #7B793C",
"y  c #737343",
"u  c #757548",
"i  c #857726",
"p  c #947E26",
"a  c #927D2A",
"s  c #867D35",
"d  c #8A7F35",
"f  c #847E3B",
"g  c #837B42",
"h  c #558E3E",
"j  c #718D43",
"k  c #679542",
"l  c #7B9346",
"z  c #9B8225",
"x  c #8D8239",
"c  c #948737",
"v  c #918837",
"b  c #9E8C30",
"n  c #928539",
"m  c #9B913C",
"M  c #A68C2D",
"N  c #AD8E28",
"B  c #B8982F",
"V  c #A59136",
"C  c #A99637",
"Z  c #A6913C",
"A  c #A7993C",
"S  c #B79A37",
"D  c #BFA137",
"F  c #BEA239",
"G  c #C29E2D",
"H  c #C5A63B",
"J  c #D3AC39",
"K  c #D7B039",
"L  c #DCB439",
"P  c #E3B738",
"I  c #E5BA3A",
"U  c #ECBE3A",
"Y  c #FCC636",
"T  c #F3C33B",
"R  c #F9C53A",
"E  c #FBC93E",
"W  c #848044",
"Q  c #898541",
"!  c #8C8942",
"~  c #87834B",
"^  c #8A844C",
"/  c #8E8A4F",
"(  c #938A47",
")  c #938B4C",
"_  c #839848",
"`  c #9A9544",
"'  c #9E924A",
"]  c #959246",
"[  c #998E51",
"{  c #9E9151",
"}  c #AD9741",
"|  c #A89B41",
" . c #A0914B",
".. c #AC9A4B",
"X. c #A3994A",
"o. c #B39D45",
"O. c #BB9F41",
"+. c #B19F4C",
"@. c #A99D55",
"#. c #99A64E",
"$. c #87BD4E",
"%. c #ADA34F",
"&. c #AAA245",
"*. c #BFA241",
"=. c #BFA748",
"-. c #AFA350",
";. c #A5AF52",
":. c #AFA951",
">. c #B3A353",
",. c #B9A753",
"<. c #B7AD52",
"1. c #B8AE52",
"2. c #B4A358",
"3. c #BCB050",
"4. c #C4A641",
"5. c #C7A843",
"6. c #CBAB46",
"7. c #D7B541",
"8. c #DFBE49",
"9. c #C4B356",
"0. c #CBB255",
"q. c #C7BC57",
"w. c #CDBC54",
"e. c #D9B852",
"r. c #D3BC5D",
"t. c #DABD5B",
"y. c #E1BF59",
"u. c #D3C55A",
"i. c #D6C85C",
"p. c #DDCD5D",
"a. c #CFD15E",
"s. c #E7C145",
"d. c #EFC346",
"f. c #ECC44C",
"g. c #F8CA41",
"h. c #F4CC49",
"j. c #FACB4B",
"k. c #F4C543",
"l. c #FCD34D",
"z. c #E8C456",
"x. c #E9C65E",
"c. c #FCCF54",
"v. c #F3CD5F",
"b. c #F2C953",
"n. c #E2D15E",
"m. c #FED253",
"M. c #FBDA55",
"N. c #FCD25B",
"B. c #FCDC5C",
"V. c #F3D251",
"C. c #DCD862",
"Z. c #EDCE65",
"A. c #E7D564",
"S. c #ECD664",
"D. c #EDDC65",
"F. c #FCD463",
"G. c #F2DC65",
"H. c #FEDD63",
"J. c #F3D368",
"K. c #FAD66A",
"L. c #F4DB68",
"P. c #FBDC6A",
"I. c #EEE166",
"U. c #F4E267",
"Y. c #FBE262",
"T. c #F6E468",
"R. c #FCE56A",
"E. c #FCE96A",
/* pixels */
"                                                                                                    ",
"                                                                                                    ",
"                                                                                                    ",
"                                                                                                    ",
"                                                                                                    ",
"                                                                                                    ",
"                                                                                                    ",
"                                                                                                    ",
"                                                                                                    ",
"                  t t                                                                               ",
"                3 >.0.5                                                                             ",
"                3 ,.t.q                                                                             ",
"                3 ,.r.9                                                                             ",
"                3 <.i.0                                                                             ",
"                3 1.i.0                                   1 1                                       ",
"                3 1.i.0                                 ! ` ]                                       ",
"                3 1.i.0                               e 3.E.n.(       4 r ~                         ",
"                3 <.i.0                             t q.L.H.j.u.' 1 5 y A H 7                       ",
"                3 1.u.5                             e A.B.j.Y j...6 6 u 5.K 7                       ",
"                3 1.p.f                             ! A.l.R g.g.=./ ) ( 4.H 7                       ",
"                3 ,.N.L s                           A.L.j.h.Y.Y.G.D.A.s.O.g 5                       ",
"                3 &.l.T s 1 3 , 1 1 1 1 1 1 1 1 : >.P.Y.B.B.E.E.E.E.E.B.8.Z 5                       ",
"                4 V P U V f Q W ! ! Q ! Q ! ! x f o.L.R.E.E.E.E.E.E.E.E.B.7.q                       ",
"                  5 c U U f.Z.Z.D.D.D.D.D.D.D.Z.f.h.R.R.E.E.R.U.U.T.E.E.E.p.~                       ",
"                  1 x T c.H.E.R.E.E.E.E.E.E.E.R.Y.l.V.Y.E.E.U.#.l ;.T.E.E.G.r.[                     ",
"                  1 x T N.T.E.E.E.E.E.E.E.R.E.E.E.M.R Y.E.E.I.k @ j L.E.E.E.K.{ u                   ",
"                    x U H.E.E.E.E.E.E.E.E.E.E.E.E.M.k.Y.E.E.I.$.h _ T.R.T.L.K.{ y                   ",
"                      v p.E.E.E.E.E.E.E.E.E.T.E.E.B.g.U.E.E.T.C.a.C.E.P.,.X.Z.( 3                   ",
"                      > u.E.T.E.E.T.E.E.E.E.R.E.E.M.R H.E.E.E.E.E.E.E.R.r...>.g                     ",
"                      * w.E.E.E.R.E.E.R.R.R.E.E.T.M.k.Z.A.I.E.E.E.E.E.D.A.0.q                       ",
"                      * 0.R.E.E.E.E.R.P.R.R.E.E.P.N.U  .^ 2.L.R.E.E.K.@.g y                         ",
"                      & n r.P.E.E.R.L.m.H.R.P.P.P.F.b.5.^ ~ 2.-.m c n g                             ",
"                      # > ..R.R.R.P.v.J 5.y.N.K.K.K.N.g.H g 5 1 & O +                               ",
"                        > %.E.K.F.P.t.= $ p k.F.K.N.E U T B &                                       ",
"                        , >.Y.j.j.e.) % . * p d.F.N.U V K G #                                       ",
"                        - | M.R Y S , #     $ N z.N.I w D G $                                       ",
"                        O z E R E N +         $ o.c.P w H G %                                       ",
"                        o z R R M.A O           ; M P w D K 8                                       ",
"                        X b M.M.E.&.X           . i V.3.C a ,                                       ",
"                        o v n.n.n.m X           . s p.p.s X +                                       ",
"                          % < < < &               + < < #                                           ",
"                            . . .                   . .                                             ",
"                                                                                                    ",
"                                                                                                    ",
"                                                                                                    ",
"                                                                                                    ",
"                                                                                                    ",
"                                                                                                    ",
"                                                                                                    ",
"                                                                                                    "
};
