/* XPM */
static char *_2c5b1450d9643fadcc590fb30dad2cf0MuT8K6YufAettJF[] = {
/* columns rows colors chars-per-pixel */
"50 50 244 2 ",
"   c None",
".  c #0B0201",
"X  c #050B04",
"o  c #090A05",
"O  c #02010B",
"+  c #0C030B",
"@  c #060B0A",
"#  c #0B0C0B",
"$  c #140401",
"%  c #1B0302",
"&  c #130B03",
"*  c #120C0D",
"=  c #160509",
"-  c #0D120C",
";  c #0C1206",
":  c #15150C",
">  c #030212",
",  c #0A0313",
"<  c #020A11",
"1  c #0E0C12",
"2  c #000419",
"3  c #060A1C",
"4  c #110D12",
"5  c #150719",
"6  c #0C141C",
"7  c #0C1316",
"8  c #131314",
"9  c #191416",
"0  c #151C15",
"q  c #1B1D15",
"w  c #15151A",
"e  c #141C1B",
"r  c #1C1C1B",
"t  c #1A131C",
"y  c #240A04",
"u  c #251408",
"i  c #3A1A02",
"p  c #371904",
"a  c #231D1C",
"s  c #261913",
"d  c #381016",
"f  c #192807",
"g  c #1D221D",
"h  c #17241C",
"j  c #22231D",
"k  c #25281A",
"l  c #382619",
"z  c #3A240D",
"x  c #070924",
"c  c #170B23",
"v  c #0D1924",
"b  c #141622",
"n  c #151A24",
"m  c #1B1C23",
"M  c #141D2B",
"N  c #17182A",
"B  c #1D1F34",
"V  c #241A26",
"C  c #351C28",
"Z  c #2A0433",
"A  c #1D2223",
"S  c #1C242B",
"D  c #182527",
"F  c #1C2632",
"G  c #232423",
"H  c #2A2A24",
"J  c #23242C",
"K  c #242B29",
"L  c #2B2A2B",
"P  c #2A2525",
"I  c #352C28",
"U  c #37332E",
"Y  c #222633",
"T  c #242B32",
"R  c #2B2B33",
"E  c #252B3C",
"W  c #312D36",
"Q  c #333131",
"!  c #38383B",
"~  c #2C3332",
"^  c #461A17",
"/  c #5B3509",
"(  c #412D18",
")  c #57371B",
"_  c #483102",
"`  c #663503",
"'  c #421D3A",
"]  c #491E27",
"[  c #473229",
"{  c #44373A",
"}  c #532D30",
"|  c #374D1C",
" . c #5E400F",
".. c #64400C",
"X. c #406218",
"o. c #55452F",
"O. c #755826",
"+. c #6E523A",
"@. c #746A36",
"#. c #3D2945",
"$. c #463946",
"%. c #543E47",
"&. c #593D58",
"*. c #4F2D5B",
"=. c #543665",
"-. c #3D444A",
";. c #5A5857",
":. c #4E4B4B",
">. c #715751",
",. c #7A624B",
"<. c #554A62",
"1. c #6B5968",
"2. c #735F69",
"3. c #735E67",
"4. c #724D72",
"5. c #74616E",
"6. c #726971",
"7. c #816712",
"8. c #966C3B",
"9. c #8F6B33",
"0. c #A87737",
"q. c #A76916",
"w. c #997C46",
"e. c #916B4E",
"r. c #A57249",
"t. c #B77F42",
"y. c #845B7D",
"u. c #8B7874",
"i. c #5F843F",
"p. c #768E47",
"a. c #DEAE1C",
"s. c #C58627",
"d. c #DAA929",
"f. c #CEB03A",
"g. c #E5B737",
"h. c #EFB830",
"j. c #EEC536",
"k. c #F9C73B",
"l. c #FCD33B",
"z. c #F3C82E",
"x. c #869A54",
"c. c #929C45",
"v. c #85A458",
"b. c #B5927B",
"n. c #AFA773",
"m. c #A19B67",
"M. c #C9A84C",
"N. c #D4AE49",
"B. c #DCB558",
"V. c #DBAC5A",
"C. c #EEB84D",
"Z. c #C3907D",
"A. c #CFAA70",
"S. c #E4BA63",
"D. c #E5AE76",
"F. c #F6C845",
"G. c #FBD24A",
"H. c #F8C759",
"J. c #FCDB53",
"K. c #EFC646",
"L. c #FFE158",
"P. c #C2C46B",
"I. c #CEC977",
"U. c #F8C964",
"Y. c #FDD666",
"T. c #F9CA78",
"R. c #FCD578",
"E. c #EBCE74",
"W. c #FFE67E",
"Q. c #774383",
"!. c #895292",
"~. c #966C8D",
"^. c #A27D8F",
"/. c #9E74B4",
"(. c #AB77B6",
"). c #B078B3",
"_. c #CB79AA",
"`. c #BC7FC5",
"'. c #988A96",
"]. c #B59095",
"[. c #B595A8",
"{. c #B88BBA",
"}. c #AE91B0",
"|. c #9B8AB4",
" X c #C88B8D",
".X c #D1B18B",
"XX c #EEB188",
"oX c #C99BBD",
"OX c #D892AB",
"+X c #CCA0B9",
"@X c #F1B5AA",
"#X c #F6BABA",
"$X c #E8ACAD",
"%X c #D9C996",
"&X c #CDD299",
"*X c #D1CE91",
"=X c #FEC987",
"-X c #F5D286",
";X c #F4C99A",
":X c #F7D697",
">X c #EAD495",
",X c #FFE483",
"<X c #D4CCA9",
"1X c #FBCCA8",
"2X c #F9D3A6",
"3X c #FEC6B7",
"4X c #F8D8B3",
"5X c #E7D2A5",
"6X c #FFE3BC",
"7X c #B986C2",
"8X c #AF8CC2",
"9X c #D69BCD",
"0X c #D698D8",
"qX c #C791CE",
"wX c #C4A2C5",
"eX c #DCA8DA",
"rX c #D3AFD1",
"tX c #E2AEDD",
"yX c #E5B7DA",
"uX c #FAB7D8",
"iX c #F6A9D0",
"pX c #D79EE5",
"aX c #DEADE4",
"sX c #E9AEE9",
"dX c #E9BAE5",
"fX c #F8B9E8",
"gX c #EBB2F5",
"hX c #FAB9F3",
"jX c #E6AFF3",
"kX c #F9C9C2",
"lX c #F8C5D9",
"zX c #F2D0CC",
"xX c #FFF0DB",
"cX c #DDC0EE",
"vX c #EAC2E8",
"bX c #FAC3E6",
"nX c #FCD2ED",
"mX c #FDC5FB",
"MX c #FFC9F9",
"NX c #FED4F5",
"BX c #FFF6E7",
"VX c #FFFCFD",
"CX c #F7F6F4",
"ZX c #E5E3E8",
/* pixels */
"                                    O                                                               ",
"                                    O       .     .                                                 ",
"                                                                                                    ",
"                                                  .                                                 ",
"                                                                                                    ",
"                                    X             .                                                 ",
"                                  X                   . +                                           ",
"                                                            O                                       ",
"                    O         X X       o   o       @   O                                           ",
"                  o r r m L G G r j H k r @   X .         + +                                       ",
"                    j G r L P r 8 8 9 8 G r H   O                                                   ",
"                    G L G Q K * . VXr 8 # G K                                                       ",
"                    G L G L L r . 4 + V 9 # 8 K @ X   X                                             ",
"                    r G r r A P L P '.a   4 V # A 8 X     @ X                                       ",
"                O . G P 8 O q :.~.V #   8 @   g A h @     X                                         ",
"                  X r K #   8 ;.rX'.%.. VX  VXO 7 e 0 ;                                             ",
"              O     ~ G     H #.|.vX}.C . $ R :.2 6 D k k . .   .       O O O O                     ",
"                    g g ; X h V <.{.rX].%.. t O S O X h f   . .       O + O > O     X       X       ",
"                O   h g 0 - ; + Z Q.aXNX^.[ = VX  6 @ e r N > O   X X       + O                     ",
"                    K G G - X + *.!.eXeXvXoXC . # o 8 @ b B > >       X       O O           O O     ",
"            O     X h e j 0 X * Z !.jXsXMXyX^.{ . 6.  - < v S Y O O X X   X .   O O         O       ",
"                    X X g q X + ' ~.0XgXeXMXNX~.{   VX1   7 T F M B : X   X O   O O                 ",
"  O                     g h   . Z !.tX(.pXgXaXNX].I O O < S e D F Y h ; X     O O O                 ",
"      O                 j 0   o I &.4.7XqXgXmXNXnX[.1.V VXO @   v F K k f : # O O > .     X X       ",
"O                     X h g q   1.. *.{.).)._.oX+XyX~.c > 5 , O c x t g ; 0 Q N > +   .   X X       ",
"O   O                 X g G A 8 CX= $.wX4.Z ] } ) } ] s = = & s   5 ZXg @ 1 x W > O +               ",
"  O             X       A K K m L V *.>.>.+./ ` ` / ` O.@.9.9.z % . . 4 n 6 Y N O O   .       X     ",
"                      X G K m m 5 V y p 8.V.V.C.N.N.M.N.B.W.E.7.p z I { ! E M Y     .       X       ",
"                        J m 6 4 :.% i 0.S.H.F.F.F.G.K.G.J.L.J.f.M.n.,.. 3 < F h     .               ",
"                      O J b > + d ) 8.B.G.F.F.F.h.F.C.F.j.j.j.j.Y.-X@.$ O 3 6 K       + O O         ",
"                  O     J b > + p 9.S.Y.k.z.G.h.U.U.U.H.H.H.H.d.g.Y.O.$ > 3 D h       + + O         ",
"                        Y b 2 * p t.K.k.a.d.H.,XR.T.=X=X=XR.R.N.N.E./ u r b h h X     . O O         ",
"          O         X - n M x > p 0.g.k.g.f.P.*XI.>X4X3X1X-XP.c.w.A.% l P I q k       .   O   O     ",
"        O O O   X ; -   e F 2 x ^ 8.g.F.R.S.x.i.v.&XkXkX2X*Xp.| f y u I I P r a   . .     . O       ",
"        O             X S 6 2 , C r.g.G.:X%Xp.X.p.&X4X1X4X.X@.f . [ $ I L J m K                     ",
"          O     X # 8 K r R O + d r.g.K.-X%Xm.x.m.&X2X5X5X<Xv.| k = t V J R S S       . .           ",
"                    m m ~ :   % ^ r.g.k.R.>X*X*X<X5X;X;X;X6X<X:.&     G Y M v F O         .         ",
"+ O             O S m r # . . % p 8.h.F.H.-X:X4XzX4X1X;X1XxXzXo.. {   0 x v v #.O O                 ",
"O +       X     O Y m 5   l xXy / q.a.l.K.U.=X1X1X@X#X3X@XuX$X,.u   U O O M E v > O                 ",
"+             X > Y N 4 $ BX.  .s.s.a.z.H.R.XXD. X X$X#XOX X Xb.e.. $   8 b S Y O O                 ",
"+ O           O O Y , 4 . l +.c.D.C.k.J.D.XXXXXXOX_.iXuXOX]. X$X X,.I u . O Y J O O O               ",
"          X     O F c . = l m.b.m.B.H.S.b. XXX1XiXhXyXuXfXvX3X].n.n.+.$ $ * 1 J O                   ",
"  .       X   O < Y m t k s [ o./ O. .) y.9XlXuXfXhXtXtXdXNXzXe.) ) z [ . j Q V                     ",
"              O   L m Q l s & $ . y y ' !.9XtX9X0X0XrXdXrXwX].[ % y u l l H g 0               O     ",
"            O     L a U U q & : . 5 *.(.qX).`.`.qX).9XyXwX5.C = % BX: s ~ ! h K               O     ",
"        O O O   . P k k :.a 4 + 6 *.(.jXsX0X0X0XqX9X9XdXdX4., 5 . : j Q T 6 K h                     ",
"  X     O O O     s k k ;.G N N =.8XhXbXiXuXbXbXhXmXfXbXMXoX4.$.t 1 -.D v F ~ h       . .   .       ",
"X     O   O O     I j q 8   n <.|.cXvXuXnXfXuXlXfXMXfXbXvXnXrX<.> O @ F F D D A       .   .   +     ",
"                    k g r 8 A R 5.1.2.2.3.3.3.3.2.1.5.5.1.6.6.$.1 8 w m D     @                     ",
"                    G V A r j P 1 6 - 8 1 8 4 8 8 # t 9 # 9 r # P K G G P                           "
};
