/* XPM */
static char *fe7072170e284696b8fbf1ef03f54d65uEhC7lhSgxVVx24n[] = {
/* columns rows colors chars-per-pixel */
"64 64 195 2 ",
"   c #302C2D",
".  c #282A25",
"X  c #2B252D",
"o  c #272D29",
"O  c #2D2B2D",
"+  c #262A2A",
"@  c #32232C",
"#  c #3A262E",
"$  c #332C2B",
"%  c #3A282C",
"&  c #26302C",
"*  c #2C322B",
"=  c #263226",
"-  c #32312D",
";  c #272436",
":  c #2D2534",
">  c #262F36",
",  c #2D2C34",
"<  c #2D253C",
"1  c #2D2B3C",
"2  c #352534",
"3  c #3A2533",
"4  c #332B34",
"5  c #3B2A34",
"6  c #34253C",
"7  c #39253C",
"8  c #342B3C",
"9  c #3A2A3C",
"0  c #2D3133",
"q  c #2E303C",
"w  c #313035",
"e  c #393035",
"r  c #32313B",
"t  c #3D393A",
"y  c #41253E",
"u  c #412939",
"i  c #3D1D44",
"p  c #371F51",
"a  c #2F2645",
"s  c #2F2B41",
"d  c #2E2748",
"f  c #352642",
"g  c #3A2542",
"h  c #342A42",
"j  c #3A2A43",
"k  c #3B274D",
"l  c #362D4D",
"z  c #3B2D4C",
"x  c #343145",
"c  c #3A3245",
"v  c #36324B",
"b  c #3C324D",
"n  c #3D384F",
"m  c #3D2653",
"M  c #362E53",
"N  c #3D2D54",
"B  c #3E2E59",
"V  c #373153",
"C  c #3D3253",
"Z  c #3B3852",
"A  c #3E325A",
"S  c #3F3859",
"D  c #422442",
"F  c #422C41",
"G  c #412D4D",
"H  c #403243",
"J  c #41324C",
"K  c #422554",
"L  c #422D54",
"P  c #482F55",
"I  c #422D5A",
"U  c #492E5C",
"Y  c #44245B",
"T  c #423255",
"R  c #493255",
"E  c #42325A",
"W  c #49325A",
"Q  c #4D3B5C",
"!  c #483953",
"~  c #53375F",
"^  c #533D5E",
"/  c #5A395E",
"(  c #462F61",
")  c #492E63",
"_  c #512E64",
"`  c #463562",
"'  c #4B3263",
"]  c #4E3D63",
"[  c #4E3E69",
"{  c #543763",
"}  c #5B3564",
"|  c #543D64",
" . c #5A3C65",
".. c #5E366A",
"X. c #543D6A",
"o. c #5C3D6A",
"O. c #623B66",
"+. c #62376B",
"@. c #613C6B",
"#. c #653B70",
"$. c #6C3D73",
"%. c #4C425D",
"&. c #54425D",
"*. c #4D4165",
"=. c #4F4965",
"-. c #4D416A",
";. c #544165",
":. c #5A4265",
">. c #544963",
",. c #584E67",
"<. c #55426A",
"1. c #5A426A",
"2. c #5C4A6B",
"3. c #554A6A",
"4. c #554571",
"5. c #5B4270",
"6. c #62416C",
"7. c #62486F",
"8. c #685A6B",
"9. c #755F6C",
"0. c #644372",
"q. c #694274",
"w. c #6D5C73",
"e. c #765E74",
"r. c #76567D",
"t. c #7C567D",
"y. c #755C7C",
"u. c #7B5D7D",
"i. c #746276",
"p. c #7A6376",
"a. c #75627C",
"s. c #7A627D",
"d. c #83567F",
"f. c #815E7F",
"g. c #82627C",
"h. c #765681",
"j. c #7C5584",
"k. c #755D83",
"l. c #7C5C84",
"z. c #755489",
"x. c #7E5589",
"c. c #745A8B",
"v. c #7D5B8A",
"b. c #7E5E90",
"n. c #766284",
"m. c #7B6283",
"M. c #76628D",
"N. c #7D628A",
"B. c #7E6491",
"V. c #825686",
"C. c #825A86",
"Z. c #895F87",
"A. c #83558C",
"S. c #89558E",
"D. c #835B8C",
"F. c #895B8C",
"G. c #845691",
"H. c #8B5491",
"J. c #855C91",
"K. c #8A5C93",
"L. c #826285",
"P. c #84628B",
"I. c #88638C",
"U. c #846092",
"Y. c #8A6194",
"T. c #8F6398",
"R. c #AD9EAB",
"E. c #B49DAE",
"W. c #B69CAA",
"Q. c #B696B7",
"!. c #BC97B6",
"~. c #B59DB3",
"^. c #BA9BB4",
"/. c #B794BC",
"(. c #BC94BC",
"). c #B69DBA",
"_. c #BA99BC",
"`. c #BD9ABE",
"'. c #BE9DBD",
"]. c #BB9ABA",
"[. c #B6A1AF",
"{. c #BBA3AF",
"}. c #B6A5B5",
"|. c #B9A1B1",
" X c #BAA2B5",
".X c #BAA1BB",
"XX c #B6A3B9",
"oX c #C19ABD",
"OX c #C49BBD",
"+X c #C093BC",
"@X c #BE9AC2",
"#X c #BB9AC1",
"$X c #BD91C4",
"%X c #C19DC3",
"&X c #C595CB",
/* pixels */
"5 2 3 3 # 5 # 3 % % % 5 # # u % % % 5 2 8 7 g 7 O O 9 9 5 3 % % # u 3 9 5 X 9 2 3 5 3 u 3 @ e $ 4 4 3 3 3 5 9 6 9 @ - $ % u 5 7 ",
"e.p. X X~.~.|.|.|. XW.E.~.E.E.[.[.[.[.R.XX).L.e.$ t 8.i.^. XW.{.W.W.W.|.~.~. XE.E.E.E. XE.[.}.E.E.E.^.^.[.|.~.~.p.p.$ % 9.e. X_.",
"C.I./.#X%X_.#X_.`.]._._.oX%XoX_.!.]._.#X_.Q.Z.d.3 @ s.L._.%X!.!.OXoX!.Q.].'.Q.'.^.OXoX!.^.'.Q..X~.!.oXoX^.^._.#Xu.p.3 3 g.f._./.",
"&X$XD.D.V.D.C.l.D.t.D.P.l.C.D.V.D.C.D.j.l.L.+XOX5 5 _.(.D.V.C.C.V.Z.Z.t.L.u./  .t.Z.C.t.L.u./ &.l.Z.C.C.C.u.D.D.#X!.F 3 _._.l.D.",
"&X&XV.F.j.D.l.D.v.v.D.C.D.D.j.D.j.j.Y.j.P.l.+X!.3 3 '.%Xx.J.D.C.C.V.D.l.P.l.o. .C.j.P.C.C.l.1. .m.l.C.l.l.u.l.v._._.3 7 OX%Xl.v.",
"D.S.D.C.@.o. . . .2. . .l.v. .o.@.@. . .l.t.I.L.5 @ u.l.v.v.../ 6. .l.k. .:.6. .6. .l.h.o.o.6. . .o.o.O.&.1.1.o.N.m.8 9 p.r.6.| ",
"C.d.D.t. ./ :.:.;.:.| ;.m.N. . .| 1.| 1.N.v.j.t.2 9 n.v.N.v. . . . .N.N.:.^ 1. . . .N.N.1. .o.| ;.;.1. ./ ^ :.5.n.8.9 4 a.y.:.:.",
"Z.j.O.6. . .:.^ >.Q 2.;.{ :. .:. .1.K N P L v.N.6 8 n.M.I Y P P  .| ;.|  .:.| :.;. . .|  .1. .X.;.<.o.| ! T { <.<.>.: 4 &.:.^ ;.",
"D.D.O. .o.<. .<.:. .X.<.o.o.1.o.X.X.I B Y ' j.v.8 h M.c.I I K W ;.<. .:.;. .:.:.| :.| 1. .o.o.1.X.5.1.{ W E ' 5.<.*.8 8 ^ :. .X.",
"} #.j.v.1. . .;.L N L L L I I N B E B ( B m U G 8 ; T E Y ' L N L L L L P W ~ ;.:.1.L T L L L N B B U Y z N I I W T < , T R L T ",
"o.| N.M.| 1.;.1.C T C T N E B I A B B A C T T G , r v z B A M A B A I B L T ] <.] ;.C T T C E E N C P I L T T E N v 8 4 c z N C ",
"T L <.;.] ;.z C N N N C C N V N C M V V v b g 8 = 0 1 l A A C S V A A N N N C T C S V l V N M C v V G z b v N N f h 0 0 8 7 b b ",
"z T %.%.,.&.b b b b b b V V b Z Z v Z v b c 2 4 * = + s l v Z v V A V C C C V v v v Z v Z Z M C b b J b c c b b s , O * 4 2 v c ",
"f 8 f 8 6 6 8 6 8 6 f 8 f 8 s f 8 < f < < 8 7 7 * * 8 h f 6 h f d d d f j h 6 < s ; s 1 s s < < 8 f g j 8 8 8 f 8 8 O O 4 2 j 8 ",
"6 6 h 9 7 6 y   7 g 7 g 7 f f 6 7 g j j j g i 7 4 , 7 j g j 7 6 f h f 7 7 7 5 5 r 4 4 4 , : H 9 6 g g g 7 j g g g 8 4 $ u 7 g 6 ",
";.:.y.s.m.u.g.g.u.C.l.s.l.s.l.l.u.u.l.k.l.v.D.D.s.a.l.l.l.m.y.s.a.a.m.f.s.p.u.p.5 8 O 4 2 9 i.p.l.l.l.C.l.m.c.v.m.m.i.p.m.m.C.v.",
"@.@.D.D.v.x.P.j.D.D.D.J.j.j.Y.v.V.C.x.v.v.J.x.J.v.l.D.D.l.N.l.l.l.j.V.V.l.l.C.j.D 7 O X 7 u y.c.P.x.D.D.l.D.D.v.N.k.N.v.v.D.S.V.",
"x.A.J.A.J.A.v.D.j.v.j.V.J.F.D.x.J.V.F.Y.x.J.G.x.J.v.D.x.o. .1.o.v.K.H.S.F.D.F.K.l.p.9 4 g.V.l.b.x.b.G.A.K.F.j.P.X.X.X. .x.J.S.K.",
"J.J.J.A.A.V.x.D.D.D.J.F.v.V.A.D.F.x.x.P.x.v.J.v.x.D.j.l.0.{ 1.| v.D.H.H.D.D.G.G.F.r.6 9 C.F.J.b.v.D.v.D.D.D.h.t.{ 1.X.2.v.v.V.S.",
"A.A.A.D.@.@.@. .@. .v.l... .o...v.j.@.....@.| o.v.D.@. .o. . .<.X...K.H.....G.K.J.N.7   V.S.x.J.o.o.v.x.@.} O.1.1.1. .X.o.O.l.C.",
"J.F.j.V...@. . .1. .l.l.<. .1. .D.l.o.|  .o. .1.v.N. . .:. .&.;.;.X.D.D. .1.j.D.l.l.8 6 P.T.x.J...o.v.v.6. .1.1.;.;.*.|  .o.l.C.",
"j.C.@.q.h.l.O. . .;.1. . . . .o. .o.|  .L P  .1. . .| 1.R P T z C J | :.;.;.U K N.y.8 8 r.j._ Y o.X. . .o.1.~ X.G T C T <.;. . .",
"D.D.}  .l.v.1.| | 1.;. .<.X.;.<.X.2.1.5.I N ] X.<.|  .;.k z E V v C ;. .3.*.N I n.a.4 8 m.l.U I X.<.1.X.1.:.| 1.N N C N  .;.~  .",
"v.v.O. .6.o.| :. .;.;.;.C N -.;.X.1.m N E C E N X.<.<.1.;.<.*.<.>.%.<.] v S m A C b , 8 z L Y I ( B X.<.o.X.W N T N -.<.-.;.<.<.",
"v.P. .|  .:. .<.| 2.] ] E C ;.<.[ 4.B B A B A A <.<.X.;.;.<.-.-.-.;.5.[ I N I ` L b 8 4 z I I I B N <.<.;.X.N E N E [ -.<.-.<.<.",
"| O.k.v.2. .;.*.;.*.T N z k E N m ` M A A M M N B B B B I E [ <.4.X._ I N B B B E b 8 8 J L B E E A A N B A N B M A I A C N B B ",
" . .N.n.^ :.;.2.;.*.C T T T E N A T A B A V C C C E E N I E [ <.;.] U N N E B B V c 4 $ j v v C N C l N A B T B E A E A B B N A ",
"R G :.| ^ ;.k z J J z N C V T z T M C V S C C C N N L N N N N P A L N N b v N N h 8 , O 8 x v C v C Z C T V C V m N B N N L C N ",
"G J ^ ^ 2.>.J J z T C T J b C T T l T x b x b c b J G L T G N N b b J C b b b Z 1 4 O $ 4 r c x b c b x c v J T C L T L T C C L ",
"g g j 7 6 6 6 6 f 8 f f f f g f 8 8 h 1 8 1 8 h f 6 6 f j j j f 7 6 f s 8 8 f 1 8 2 $ $ 4 8 h f x : q 8 8 h f 6 j g f g g g f f ",
"7 2 j j 6 6 j 6 6 6 6 6 6 g f 8 2 r 2 4 r 1 4 : 9 8 7 7 g g g 6 g g g f 8 f g f g 5 % u 2 g k f 4 X , w : : 9 6 7 7 7 7 6 7 8 j ",
":.:.y.y.s.u.s.n.m.s.a.l.m.m.u.a.s.w.9 4 , 4 8 9 i.s.p.m.u.u.l.m.u.l.l.m.m.l.k.M.l.e.g.g.u.l.D.l.6 4 , w X c i.s.y.a.s.s.s.u.s.a.",
"....v.D.D.j.F.V.C.v.D.l.D.l.P.v.l.C.y 9 6 3 D D l.D.l.v.C.V.D.D.C.D.l.v.D.v.D.D.v.D.D.F.G.D.J.G.D 9 2 , 8 D C.l.l.m.u.l.Z.C.C.l.",
"J.G.J.A.A.A.A.F.A.V.F.j.O...v.v.D.F.e.s.5 9 u.t.A.x.v.x.V.S.V.A.D.v.@.#.x.J.v.G.G.D.J.A.x.G.x.D.h.u.8 4 a.r.F.F.P.l.O. .V.F.V.F.",
"J.x.G.J.A.K.J.D.F.D.D.D.6.o.v.v.x.J.l.u.7 j l.P.F.A.b.b.D.F.G.F.D.l.6.O.v.D.x.v.D.v.J.D.G.G.J.D.F.u.h 8 a.l.H.A.v.v.X.@.D.K.v.v.",
"G.F.x.K.v.V.@...D.v... . . . . .J.v.v.l.2 9 c.x.D.G.o.o.+.+.D.v.o. .| } o. .o. .v.v. ...o.@.v.v.v.l.8 8 l.D.G.K.o.X.o.X.....o.X.",
"x.K.x.D.D.v.o.#.v.h.1.| o.7. .1.v.z.b.M.2 8 l.b.v.b.X.o...#.v.v. .1. .1.:. .:.1.l.v.:. . . .m.C.V.l.6 8 m.D.x.x.X.1.X.5.o. .2.X.",
"F.D.D.G...o. .| R P  .;.Q 1.| :.o.q.v.c.5 4 l.U...o.X.X.X.o.o.o.~ >.P K | | Q :.G R | :. . .|  .D.l.9 9 k.v.q.@. .X.N L  .:.X.X.",
"A.x.D.v...5.o.X.k N ;.2.;.:.| |  .o.c.M.$ $ k.c.6. .1.<. .1.| :.| ;.N z <.2.| 2.L P | | :.:.| 1.l.s.4 4 n.c.O.O.:.;.E T &.&.;.<.",
"A.F.#.@.v.v.| 1.1.;.L N :.;.;.1.1.o.( z $ O T P / &.*.;. .^ :.^ P T N W ] ;.<.{ <.^ T R ^ ;.<. .Y R @ w z E o.1. .&.;.;.H J ;.;.",
"S.A.O.+.v.c.5. .<.;.N E ] | 1.;. .{ ( N - - T I 1.^ >.3.] | 2.| E m E E ] 4.[ <.;.<.E I ;.<.X.:.L L w 4 C E {  .^ >.;.-.! J ^ ;.",
"F.D.@.@.o.o.X.X.4.;.N N N T ;.;.W E B z O O C Y L T ] *.T N T L N B [ X.<.4.I N X.;.] X.1.X.T N N b , , l B E U :.;.X.-.Q ! 1.1.",
"D.j.@. .| | 1.<.;.*.T I T T X.X.m I B C 0 , C I I E -.-.E B B A B ` 4.4.<.X.I I <.X.<.<.<.;.E N A V > 1 C B B B  .X.<.4.*.<.X.o.",
"..7.h.c. .X.;.;.N T N T C N T N B A A V 0 , C I B B A A B B A m N m I B N B N E B C ;.] T L N E C C q s Z V I I L E -.[ E E Y I ",
"/ &.m.N.:.2.| ;.C T C C T C T C T C z x 0 > v N W C N V A C E A A C T N N C L C N N <.*.C A N T z v q 0 x v A I L T *.*.S A N I ",
"J z ;.&.f J z v J C z v N V N N C v 8 w > O 8 j G N V V N N N V C N b L C C v z C l ! T C C z v f 8 O , q h N C L b T C V C L Y ",
"c J &.>.J b b J b C C C Z V V Z v c 4 - & o 4 2 J T Z b b b v T b b v v b b C C J v z v z Z C b 4 4 O O w 4 z C J G c v v V T J ",
"f 9 < h 6 f j 6 f f h f f f f h 7 8 4 w * $ w 2 7 f < < f j f f f f f j f 6 8 1 1 8 1 f f f f 6 6 e O $ 4 4 8 g 8 7 8 h f s h 6 ",
"c 2 8 7 6 j j g 7 g g g g 7 g 6 7 7 7 9 6 2 9 6 7 7 6 j 7 g D 7 f 6 G   g f , 4 0 * 0 : g g g j 6 7 6 8 8 6 6 7 g 7 7 6 j f 6 6 ",
"! &.a.m.m.k.l.m.l.P.l.l.l.t.t.L.l.L.u.t.m.u.l.l.u.l.l.l.l.m.l.r.y.n.y.m.P.s.8 O . * , 9 m.m.L.u.m.y.n.l.y.l.N.m.m.r.m.m.r.y.L.L.",
"6.0.v.h.D.v.x.F.D.x.x.D.D.J.U.v.V.x.j.v.D.D.v.v.P.j.P.l.v.D.D.v.N.N.j.C.j.u.g 6 5 $ 9 g h.h.C.C.x.F.D.D.x.j.x.D.D.D.l.J.D.v.P.j.",
"D.x.G.F.A.J.#.@.J.x.J.G.x.G.G.A.K.x.J.K.x.D.J.v.#...J.J.x.A.F.C. .o.F.F.S.F.C.m.2 5 t.l.T.A.F.F.A.K.A.j.K.K.x.F.x.F.+.+.V.A.A.D.",
"A.F.F.F.S.j.+.O.D.F.F.D.G.G.A.K.D.V.C.C.V.D.C.C. .@.C.j.D.C.V.C. .@.S.A.S.j.A.D.9 2 C.F.x.A.A.A.F.j.D.V.D.F.V.D.D.C.@.O.D.C.C.D.",
"S.S.S.j.D.C.C.C.O. .j.D.j.F.A.A.O.6.O.O.C.l. . .O.@.O. .C.C. .6.o. .+.$.F.J.A.j.7 5 j.F.v.U.+...@. .l.l.O. .6. . .O. . .6.|  .~ ",
"A.S.A.F.D.l.C.l.1.1.v.U.v.J.G.v...o. . .m.N. . .|  .{ 6.l.l.1.{ ^ 1.} $.h.l.J.N.4 2 l.K.x.v.0.1. . .N.M. .|  . .2.X. .;.<.;.<.<.",
"A.K.A.A.@. .1. .m.r.' m c.b.Y U 1.{ 2.X.] 1.;.;.<.1.;.;.N P  .<.;.:. ...I L b.v.4 4 v.v.I L X.X.o.;.1.{ <.2.] <.X.| T C ;.*.N T ",
"x.J.x.D. .| 1.;.M.k.I L M.c.( U 1.X.<.2.] *.<.X.;.<.;.*.W T ] ;.%.>.1.o.T E z.N.r , k.b.N N <.<. .1.;. .;. . .<.;.;.P N <.;.N T ",
"G.U...o.1.:.{ ] *.3.E k ' I m Y Y T *.;.T N T C ;.*.*.<.*.*.<.;.=.%.Y I k l { L , ; W W N A N m <.;. . .o.1.<.;.L T z N X.<.] ;.",
"v.D... . . . .2.;.Q P N I I I B L T | ] T z L C <.;.;.;.;.;.<.;.*.;.E W A N ( m 8 r L K ` ` B I <. .;.1.;.| ;.| L P L W X.;.;.<.",
"o.0.k.c. . .o.;.W L L I N Y ( N L N T W N N L N N C N L L L X.<.V E I Y B m B S , : G U m B B B L T | ;.L N E N L N N L N N E N ",
"X.| b.B.X.5.5.X.m B E E B B I B E I I B B A A B B I B B N Y [ <.N E N L ` S N b r , J W N E E N B A [ -.A B B B A B B A A B A B ",
"W k <.] k T N I B I N V E A N N N N B N B N B N A S N E I N E N C E L L T V s 1 O * 2 j L T C V C N A A C C A B B M B A M A A B ",
"c b %.%.T n b v b C C b v x v n v C C V C v v Z v v l Z Z v T V z v b z V h > 0 . - O 8 z N v C C v v C v C b V C Z V b b V V V ",
", 1 8 r < : l 1 f 6 1 s 1 q q < s 8 1 1 s h s s h s 1 s 1 < x s h f s s h x > & = * O 4 f f s 1 8 f 8 8 1 f 8 f < f f 8 f f 1 f "
};
