/* XPM */
static char *b25c4268191f443f8aff21af250926b8ikhhJkXzS5OzKtaZ[] = {
/* columns rows colors chars-per-pixel */
"50 50 120 2 ",
"   c #15190D",
".  c #171B11",
"X  c #1A1F13",
"o  c #1E1F1A",
"O  c #331C0F",
"+  c #291610",
"@  c #211E10",
"#  c #2F1D1C",
"$  c #351A15",
"%  c #381917",
"&  c #331D1B",
"*  c #3E1E1B",
"=  c #1F2316",
"-  c #1F201D",
";  c #212516",
":  c #23241D",
">  c #2C221F",
",  c #232D18",
"<  c #2A2D1B",
"1  c #3A2213",
"2  c #34201E",
"3  c #38201E",
"4  c #302D19",
"5  c #392C19",
"6  c #2C321B",
"7  c #30351D",
"8  c #34391F",
"9  c #39391F",
"0  c #262423",
"q  c #2C2424",
"w  c #2C2728",
"e  c #2F2B2C",
"r  c #312323",
"t  c #302C2D",
"y  c #353C21",
"u  c #393E22",
"i  c #471611",
"p  c #4E1711",
"a  c #431C13",
"s  c #4B1B16",
"d  c #431C19",
"f  c #491D18",
"g  c #511711",
"h  c #541B14",
"j  c #5C1C15",
"k  c #641C13",
"l  c #6A1C14",
"z  c #731E14",
"x  c #791F14",
"c  c #452716",
"v  c #492917",
"b  c #462B18",
"n  c #5C2315",
"m  c #642216",
"M  c #6A2115",
"N  c #6D2618",
"B  c #762416",
"V  c #7D2116",
"C  c #772518",
"Z  c #7A2819",
"A  c #3E4323",
"S  c #414624",
"D  c #444A26",
"F  c #494F27",
"G  c #474E28",
"H  c #494D29",
"J  c #4E532A",
"K  c #51562D",
"L  c #575B2F",
"P  c #5D6132",
"I  c #636635",
"U  c #636835",
"Y  c #686C37",
"T  c #822116",
"R  c #8E2216",
"E  c #842618",
"W  c #8C2418",
"Q  c #98271A",
"!  c #902819",
"~  c #9D291B",
"^  c #A32A1C",
"/  c #AD2C1D",
"(  c #B42C1B",
")  c #BD2B19",
"_  c #AC2F20",
"`  c #B02F20",
"'  c #AA3020",
"]  c #B23121",
"[  c #B63323",
"{  c #BA3121",
"}  c #BC3322",
"|  c #BB3524",
" . c #BF3424",
".. c #C72B17",
"X. c #CB2A16",
"o. c #C22B19",
"O. c #D32A15",
"+. c #D32E19",
"@. c #C6311E",
"#. c #CB301E",
"$. c #D3321D",
"%. c #C23523",
"&. c #C03525",
"*. c #C53524",
"=. c #C43625",
"-. c #CC3422",
";. c #C83625",
":. c #CA3927",
">. c #CF3927",
",. c #CB3B29",
"<. c #CF3A28",
"1. c #CF3C29",
"2. c #D33421",
"3. c #D33826",
"4. c #D33926",
"5. c #D03B29",
"6. c #D33D2B",
"7. c #D43D2B",
"8. c #D33E2C",
"9. c #D43E2C",
/* pixels */
"t t t t t t t t t t t t t t t t t t t t t t t t t t t t t t t t t t t t t t t t t t t t t t t t t t ",
"t t t t t t t t t t t t t t t t t t t t t t t t t t t t t t t t t t t t t t t t t t t t t t t t t t ",
"t t t t t t t t t t t t t t t t t t t t t t t t t t t t t t t t t t t t t t t t t t t t t t t t t t ",
"t t t t t t t t t t t t t t t t t t t t t t e t e e e e e t e t t t t t t t t t t t t t t t t t t t ",
"t t t t t t t t t t t t t t t t t t t t t e e t e e e e e t e t t t t t t t t t t t t t t t t t t t ",
"t t t t t t t t t t t t t t t t t t t t e e t e t t t t e e t e t t t t t t t t t t t t t t t t t t ",
"t t t t t t t t t t t t t t t e t e e e e t e t e e e e e t e t t t t t t t t t t t t t t t t t t t ",
"t t t t t t t t t t t t t t e t e e t t e e e e e : o 0 e e e e e e t e e t t t t t t t t t t t t t ",
"t t t t t t t t t t t t t t e t e e e e e e t e : y S 6 0 e t e e e t e t t t t t t t t t t t t t t ",
"t t t t t t t t t t t t t t t e t e 0 0 e e e 0 < A F 7 0 e t t t t e t e e t t t t t t t t t t t t ",
"t t t t t t t t t t t t t t e t e w < < 0 t w ; A < X 0 e t e 0 0 e t e e t t t t t t t t t t t t t ",
"t t t t t t t t t t e t e e e t e : u A : w 0 ; J 7 - w 0 w : . = 0 e e e e e t t t t t t t t t t t ",
"t t t t t t t t t e t e e t t t e w : 6 6 ; X ; J 6 o : ; ; X ; 7 : w t e e t e t t t t t t t t t t ",
"t t t t t t t t e t e t t e e e e & + @ 4 S D < A 6 X A K D u 8 < > w e e t e t t t t t t t t t t t ",
"t t t t t t t t t e t t e r & $ $ k V C n 9 K J H H J K H 7 , 5 m f $ r e t e e e t t t t t t t t t ",
"t t t t t t t e e e t t w * l x x Q ( ! a   7 I U Y U A c M m B ~ T z f q t t e t e t t t t t t t t ",
"t t t t t t t t e t e q * z ^ }  .( E v 6 6 8 L P G 8 6 b E / ( { &.{ E f r t t e t t t t t t t t t ",
"t t t t t t t e e t e q p ~ { <.9.=.C 5 y y y y y 1 a 5 , $ E ( <.9.6.{ k # t t e e e t t t t t t t ",
"t t t t t t e e t t e 3 k ` 1.8.6.6.&.Z 1 $ 1 $ a E / N $ O n ] 6.9.6.&.V d r e t e t e t t t t t t ",
"t t t t t t t e t t q h ^ ,.6.6.8.8.6.| ~ ~ ~ Q ~ / =.[ ~ ~ ' ,.5.6.8.6.] l & e t e e t t t t t t t ",
"t t t t t t e t e e & k ] 3.$.3.8.6.6.6.>.5.=.{ ;.<.1.5.<.>.5.3.$.3.8.7.%.x % e t t t e t t t t t t ",
"t t t t t t e t e q h ~ =.$.2.$.3.2.3.3.2.:. .=.2.3.2.3.3.2.3.$.2.$.3.2.-._ l & e t t e t t t t t t ",
"t t t t t t e t e # k ( $.2.2.2.2.2.2.2.-. .&.2.2.$.2.2.2.2.$.2.2.2.$.2.2.@.T % e t t e t t t t t t ",
"t t t t t t e t e # k ( +.$.+.$.+.$.+.+.#.o.$.+.$.+.$.+.+.$.+.$.+.$.+.$.+.o.V $ e t t t t t t t t t ",
"t t t t t t e t e # k ( O.O.O.O.O.O.O.O.O.O.O.O.O.O.O.O.O.O.O.O.O.O.O.O.O.o.V $ e t t e t t t t t t ",
"t t t t t t e t e # k ( O.O.O.O.O.O.O.O.O.O.O.O.O.O.O.O.O.O.O.O.O.O.O.O.O.o.V $ e t t t t t t t t t ",
"t t t t t t e t e # k ( O.O.O.O.O.O.O.O.O.O.O.O.O.O.O.O.O.O.O.O.O.O.O.O.O.o.V $ e t t e t t t t t t ",
"t t t t t t e t e # k ) O.O.O.O.O.O.O.O.O.O.O.O.O.O.O.O.O.O.O.O.O.O.O.O.O.o.V $ e t t t t t t t t t ",
"t t t t t t e t t # k ( O.O.O.O.O.O.O.O.O.O.O.O.O.O.O.O.O.O.O.O.O.O.O.O.O.o.V $ e t t e t t t t t t ",
"t t t t t t e t e q d x ) O.O.O.O.O.O.O.O.O.O.O.O.O.O.O.O.O.O.O.O.O.O.O.o.R s r e t t e t t t t t t ",
"t t t t t t e t t t # h / o.X.o.X...X.O.O.O.O.O.O.O.O.O.O.O.X.o.X...X...( z $ e t t e t t t t t t t ",
"t t t t t t t e t t q f T / ) ) ) ) ) X.X...X.X.X.X.X.X.X.X.o.) o.) o.( ! j r e t e t e t t t t t t ",
"t t t t t t e e e t e q h ^ ( ) ) o.) o.o.) o.) o.) o.o.o.o.) o.) o.( / l & e e t e e t t t t t t t ",
"t t t t t t t t e t e q s W / ( ) ) ) ) ( ) ( ) ( ) ) ) ) ) ) ( o.) / ~ j # e t e t t t t t t t t t ",
"t t t t t t t e e t e e r h W ~ / / / / / / / / / / / / / / / / / ^ Q k & e e t e e t t t t t t t t ",
"t t t t t t t t t e t t e r i g W / / / / / / / / / / / / / / / Q j i 3 e e t e e t t t t t t t t t ",
"t t t t t t t t e t e t t e q > h W / / / / / / / / / / / / / Q j & q e t t e t t t t t t t t t t t ",
"t t t t t t t t e t e t e t t e r s l k V / / / / / / / W k l j 2 e t t e e e t e t t t t t t t t t ",
"t t t t t t t t t t t e t t t t e r & # f z z z z z z z h & # & e e t t t e t t t t t t t t t t t t ",
"t t t t t t t t t t e t e e e t e e e e r $ $ $ $ $ $ $ r e e e e t e t e t e t t t t t t t t t t t ",
"t t t t t t t t t t t t e t t e t t t t e e e e e e e e e e t t t e t e e t t t t t t t t t t t t t ",
"t t t t t t t t t t t t t t e t e e e e t t t t t t t t t t e e e t e t t t t t t t t t t t t t t t ",
"t t t t t t t t t t t t t t t t t e t e t t t t t t t t t e t e t t t t t t t t t t t t t t t t t t ",
"t t t t t t t t t t t t t t t t t t e t e e e e e e e e e e t e t t t t t t t t t t t t t t t t t t ",
"t t t t t t t t t t t t t t t t t t t t t t t t t t t t t t t t t t t t t t t t t t t t t t t t t t ",
"t t t t t t t t t t t t t t t t t t t t t t t t t t t t t t t t t t t t t t t t t t t t t t t t t t ",
"t t t t t t t t t t t t t t t t t t t t t t t t t t t t t t t t t t t t t t t t t t t t t t t t t t ",
"t t t t t t t t t t t t t t t t t t t t t t t t t t t t t t t t t t t t t t t t t t t t t t t t t t ",
"t t t t t t t t t t t t t t t t t t t t t t t t t t t t t t t t t t t t t t t t t t t t t t t t t t ",
"t t t t t t t t t t t t t t t t t t t t t t t t t t t t t t t t t t t t t t t t t t t t t t t t t t "
};
