/* XPM */
static char *_fe0a95409f4442ce8ab242649b437ecr5U95U6ETnT3c0gi[] = {
/* columns rows colors chars-per-pixel */
"50 50 6 1 ",
"  c #2F2E2F",
". c #85578E",
"X c #BE9BB0",
"o c #564064",
"O c #3E2F5A",
"+ c white",
/* pixels */
"                                                  ",
"                                                  ",
"  ..XXXXXXXXXXXXXXXXXXXX..  ..XXXXXXXXXXXXXXXXXXXX",
"  ..XXXXXXXXXXXXXXXXXXXX..  ..XXXXXXXXXXXXXXXXXXXX",
"  XX....................XX  XX..........oo......oo",
"  XX....................XX  XX..........oo......oo",
"  ....oooooooo..oooooo....  ....oooo..oooooo..oooo",
"  ....oooooooo..oooooo....  ....oooo..oooooo..oooo",
"  ..ooooooooooooooooOOOO..  ..OOOOoooooooooooooooo",
"  ..ooooooooooooooooOOOO..  ..OOOOoooooooooooooooo",
"  oo..ooooOOOOOOOOOOOOOOOO  OOOOOOOOOOOOooooOOOOOO",
"  oo..ooooOOOOOOOOOOOOOOOO  OOOOOOOOOOOOooooOOOOOO",
"  OOooooOOOOOOOOOOOOOOOO      OOOOOOOOOOOOOOOOOOOO",
"  OOooooOOOOOOOOOOOOOOOO      OOOOOOOOOOOOOOOOOOOO",
"                                                  ",
"                                                  ",
"  oo......................................      ..",
"  oo......................................      ..",
"  ............................oooo..........  ....",
"  ............................oooo..........  ....",
"  ....oooooo..oooo..oooooo..oooooooo..oo....  ....",
"  ....oooooo..oooo..oooooo..oooooooo..oo....  ....",
"  ..oo..ooooooooooooooOOooooooOOOOOOooooOO..  ..OO",
"  ..oo..ooooooooooooooOOooooooOOOOOOooooOO..  ..OO",
"  ..ooooooooooOOooooOOOOOOooooooooooooOOOOOO  OOOO",
"  ..ooooooooooOOooooOOOOOOooooooooooooOOOOOO  OOOO",
"  oo..ooooooOOOOOOOOOOOOOOOOOOOOooooOOOOOOOO  OOOO",
"  oo..ooooooOOOOOOOOOOOOOOOOOOOOooooOOOOOOOO  OOOO",
"  OOooooOOOOOOOOOOOOOOOOOOOOOOOOOOOOOOOOOO      OO",
"  OOooooOOOOOOOOOOOOOOOOOOOOOOOOOOOOOOOOOO      OO",
"                                                  ",
"                                                  ",
"  oo................      ........................",
"  oo................      ........................",
"  ............oo......  ............oo............",
"  ............oo......  ............oo............",
"  ......oo..oooooo....  ....oooo..oooooooo..oooo..",
"  ......oo..oooooo....  ....oooo..oooooooo..oooo..",
"  ....ooooOOoooooooo..  ..ooooooooooOOooooOOoooooo",
"  ....ooooOOoooooooo..  ..ooooooooooOOooooOOoooooo",
"  ..oo..ooooOOooooooOO  OOooooooooOOOOooooooOOoooo",
"  ..oo..ooooOOooooooOO  OOooooooooOOOOooooooOOoooo",
"  ..ooooooooOOOOooOOOO  OOOOooOOOOOOooooOOooooooOO",
"  ..ooooooooOOOOooOOOO  OOOOooOOOOOOooooOOooooooOO",
"  oo..ooooOOOOOOOOOOOO  OOOOOOOOOOOOOOOOOOOOooOOOO",
"  oo..ooooOOOOOOOOOOOO  OOOOOOOOOOOOOOOOOOOOooOOOO",
"  OOooOOOOOOOOOOOOOO      OOOOOOOOOOOOOOOOOOOOOOOO",
"  OOooOOOOOOOOOOOOOO      OOOOOOOOOOOOOOOOOOOOOOOO",
"                                                  ",
"                                                  "
};
