/* XPM */
static char *_54ce4ecbc8f44beb17998509bc2007biJzqUilSDzBisjUY[] = {
/* columns rows colors chars-per-pixel */
"50 50 112 2 ",
"   c #010000",
".  c #0A0604",
"X  c #0D0806",
"o  c #0B0B0A",
"O  c #150C06",
"+  c #120E0C",
"@  c #1A0F0A",
"#  c #13100F",
"$  c #1C110C",
"%  c #131312",
"&  c #1D1D1D",
"*  c #23140C",
"=  c #201814",
"-  c #2D1B12",
";  c #2A1F19",
":  c #341F14",
">  c #2F221B",
",  c #372115",
"<  c #392216",
"1  c #312119",
"2  c #3C2518",
"3  c #1F2020",
"4  c #252526",
"5  c #2B2623",
"6  c #2F2B2C",
"7  c #352924",
"8  c #302C2D",
"9  c #332F30",
"0  c #353132",
"q  c #393637",
"w  c #383837",
"e  c #3A3738",
"r  c #3D3B3B",
"t  c #442A1C",
"y  c #4A2E1E",
"u  c #502F1F",
"i  c #4D3020",
"p  c #533322",
"a  c #593623",
"s  c #5D3A26",
"d  c #603B27",
"f  c #633C29",
"g  c #683F2A",
"h  c #6D422D",
"j  c #72452F",
"k  c #744730",
"l  c #764830",
"z  c #7B4B32",
"x  c #423F40",
"c  c #444444",
"v  c #494747",
"b  c #494748",
"n  c #4C4A4B",
"m  c #504F4F",
"M  c #50504F",
"N  c #535353",
"B  c #585757",
"V  c #585758",
"C  c #5C5B5B",
"Z  c #5C5B5C",
"A  c #5D5D5D",
"S  c #605F5F",
"D  c #5F605F",
"F  c #606060",
"G  c #616060",
"H  c #606161",
"J  c #626161",
"K  c #646363",
"L  c #646464",
"P  c gray40",
"I  c #686767",
"U  c #686868",
"Y  c #686969",
"T  c #6A6A6A",
"R  c #6A6A6B",
"E  c #6A6B6B",
"W  c #6B6B6B",
"Q  c #6C6C6C",
"!  c gray43",
"~  c #6F6F6F",
"^  c gray44",
"/  c #727273",
"(  c gray45",
")  c #747373",
"_  c #737473",
"`  c #747474",
"'  c gray46",
"]  c #767676",
"[  c #777777",
"{  c gray47",
"}  c #797A7A",
"|  c gray48",
" . c #7A7B7B",
".. c #7B7B7B",
"X. c #7C7C7C",
"o. c #7C7D7C",
"O. c gray50",
"+. c #804F34",
"@. c #835135",
"#. c #845236",
"$. c #855236",
"%. c #855336",
"&. c #855337",
"*. c #875337",
"=. c #895538",
"-. c #8B5639",
";. c #807F7F",
":. c #808080",
">. c gray51",
",. c #838383",
"<. c #848483",
"1. c #858484",
/* pixels */
"8 8 8 8 8 8 8 8 8 8 8 8 8 8 8 8 8 8 8 8 8 8 8 8 8 8 8 8 8 8 8 8 8 6 8 8 8 8 8 6 9 8 8 8 8 6 9 8 8 8 ",
"8 8 8 8 8 6 8 8 6 8 8 8 6 8 6 8 8 8 8 8 8 8 8 8 8 8 8 8 8 6 8 8 8 8 8 8 8 8 8 8 6 6 8 8 8 8 6 6 8 8 ",
"8 8 6 8 8 8 8 8 8 8 8 8 8 8 8 8 6 6 6 9 6 8 8 8 8 8 8 8 8 6 8 8 8 8 8 8 8 8 8 8 6 9 8 6 6 6 9 6 8 6 ",
"8 8 8 8 8 6 8 8 8 8 8 8 8 8 8 8 6 9 6 6 8 8 6 8 6 6 6 6 8 6 8 8 8 6 8 8 6 8 8 8 6 6 6 9 9 6 6 8 6 9 ",
"6 8 8 8 8 8 8 8 8 8 8 6 6 8 6 8 8 8 8 8 8 8 8 9 8 9 0 8 8 6 8 8 8 6 8 6 8 8 8 8 8 8 9 6 6 9 8 8 6 9 ",
"9 8 8 8 8 8 8 6 8 8 8 8 8 6 8 8 8 8 6 6 6 8 n A A C A b 9 6 6 6 8 8 8 8 6 8 8 8 6 8 6 8 6 6 8 8 6 6 ",
"6 6 6 6 8 8 8 8 8 8 8 8 6 8 8 6 6 9 x b b b K _ ( ( ) P b v b c 9 8 6 8 8 6 8 8 9 8 8 8 8 6 9 8 8 8 ",
"8 8 9 6 8 8 8 8 8 6 8 6 8 8 8 q r r A R R R | X.X.X.X.[ R R R A x r 9 6 8 8 8 8 6 6 8 8 8 8 6 6 6 8 ",
"8 8 6 9 6 6 8 9 6 8 8 8 8 8 8 b A D ' X.X.X.X.X.;.X.X.X.X.X.X.' H Z n 9 8 8 8 8 8 8 8 8 6 8 8 8 9 8 ",
"8 8 6 6 9 6 8 6 6 8 8 8 6 0 n J ^ { o.:.:.,.X.X.,.,.X.,.,.| ,.X.] } R n 9 8 8 8 6 8 8 6 8 8 8 8 6 6 ",
"6 8 9 6 9 6 8 8 6 6 6 8 6 0 B R ' o.:.X.X.,.,.R c c r V :.,.,.| :.:. .Y b 9 8 8 8 6 8 8 8 8 8 8 8 8 ",
"9 8 8 6 6 8 8 8 6 9 6 8 0 r C R ' o.o.:.| R Y r   .   & H P ( :.:. .:.X.Y n 9 8 8 8 8 8 8 8 8 6 8 8 ",
"6 6 8 8 8 8 8 8 6 8 8 6 r Z ~ ' X.X.X.X.J & + X X , * . # + v |  .:. .X.} Y b 6 6 8 8 8 8 8 8 8 8 6 ",
"8 8 8 8 9 6 8 6 9 6 6 6 r J ~ | ,.X.,.Z 5 ; - - , g g y 2 t 7 r ' >.:.:. .~ m 9 6 8 6 8 8 8 8 8 6 9 ",
"8 8 6 6 6 6 6 8 6 9 r r n P ( X.o.| Z 6 $ t i i f z =.z f j y 1 n ~ :.:.:./ A x 9 6 8 6 6 8 8 8 6 6 ",
"8 8 9 6 6 9 6 6 8 r Z J R ' X.X.:.( > $ y i y s &.=.&.z f h l a % N >. .:.:./ H r 0 8 8 8 8 6 8 9 6 ",
"8 8 8 8 8 8 8 8 c C E ' X.X.X.o.:.' 3 $ p h i s @.@.&.l d h z a O B <.o.o.O.| ' J i 0 9 8 8 8 8 8 8 ",
"8 6 8 8 6 8 8 8 c L ^ | :.X.,.,.R w > 1 p h p s &.&.&.z d h j h y 8 N :.,.X.,.X.R c 6 6 8 6 8 8 8 8 ",
"8 8 8 8 8 6 8 e n I ~ | X.X.X.E r $ , i s h p s &.&.%.z d h j k j : 6 Z ' X.X.X.E N w 6 6 8 8 8 8 8 ",
"8 8 8 8 8 6 8 M P ( _ X.:.;.X.r $ t y s j j p s &.&.%.z f h l j j j t & ~ ,.,.| O.E M 0 6 8 8 6 6 8 ",
"8 8 8 8 8 8 8 N I _ | X.;.;.;.q X y s h k j p s &.&.&.z f h l l k l t % R ,.X.X.:./ N 0 6 6 8 8 8 8 ",
"8 6 8 8 8 8 8 N R _ X.X.;.) v 5 - y h k j j p s @.&.&.z s h h h k l a : r P ,.X.O.~ N 0 6 6 8 8 8 8 ",
"8 6 8 8 8 8 8 M R ' X.X.<.R % * y i h k k j p s &.*.&.z d h h s h j h i X v ,.X.O./ N 0 9 6 8 8 8 8 ",
"8 8 8 8 8 8 0 M U ) | ,.<.R % * i a h j k j p s &.&.&.z s h h s d h j p X c ,.;.O.~ N 9 6 6 8 8 8 8 ",
"8 8 8 8 8 6 9 N I ( | X.1.~ % * p s h k l j p s &.@.*.l f h j g h j h u O c ,.| X.^ N 0 6 8 8 8 8 6 ",
"8 8 6 6 8 6 8 m R ( X.X.,.R % * p d h k l j p s *.&.*.z f h l j k k h u o c ,.X.:.^ N 9 6 8 6 6 8 8 ",
"8 6 8 8 8 8 q B R ( X.,.,.R % * i s h l j j p s +.+.+.l d h j j j j h u O c ,.,.:.( V q 8 8 8 8 8 8 ",
"8 8 8 8 6 q B I ( ' X.X.,.R % * p s h l j j p s +.h z z d j l j k k h u X c :.X.X.X.) B q 6 8 8 8 8 ",
"6 8 8 8 6 r S ~ ( ( | X.,.~ % * p s h k k j p s +.d j z d h j l j j h p . v ,.X.;.X.| J r 6 8 8 8 8 ",
"8 8 8 8 6 e A R ( ( | X.( n = - i s h k j j p d +.h z z f h l j k k h p : r P X.X.,.' G q 6 8 8 6 8 ",
"8 8 8 8 8 r A E ( ( X.,.m + < y u d h k k j p s +.+.&.z d h k j j k h f k , 6 | :.X.{ J r 6 8 8 8 8 ",
"8 8 8 8 6 r A Q ( ) X.,.n . 2 s g d h k k j p s &.=.&.z g h k j k k g g z < 4 ' ,.,.' G r 6 8 8 8 8 ",
"8 8 6 8 6 r C R ( ( X.<.n X 2 f h s h k k j a s &.&.&.z f h j j j j j f z < 4 ' ,.X.| A r 6 8 8 8 8 ",
"8 8 8 8 6 r A ~ ( ( | ,.n X 2 f h s h k j j p s +.&.$.z d h j j l l h f z < 4 | X.,.[ S r 8 8 8 8 6 ",
"8 8 8 8 6 r C R ( _ o.,.n X 2 f h s h k k j p s %.%.$.z d h j j j h g d +.< 4 ' :.,.[ S e 6 8 8 8 8 ",
"8 6 8 8 6 r A ~ E ) o.,.n X 2 f h h h k k j a a %.$.$.z h h j j j 2 < g z : 4 | ;.X.[ J e 6 8 8 8 8 ",
"8 6 8 8 q v A E ' | o.,.n X 2 s h d h k j j p s %.%.*.l f h l h y O O t z < 4 ' X.,.[ G b q 8 8 8 8 ",
"8 8 6 8 v J K R | X.o.,.M o 2 f h d h k k j a s &.%.*.l f h j y X     $ j < 4 | :.X.| P J b 8 8 8 8 ",
"8 8 6 8 b P R ~ ' ,.o.,.n X 2 f h s h k k j p d $.%.%.z f j t .     @ p z < 4 | :.X.X.| R n 8 6 8 8 ",
"8 8 6 8 b P ( ( [ X.o.n 4 . 2 f h f h k j j p s $.%.%.z d h a 2 2 < t g z < o r Q ,.X.X.R b 8 6 8 8 ",
"6 6 6 8 v P Q ( [ :.[ 4   $ 2 f h d h j l j p s &.&.&.z f h k z j g s f z p O o A ,.X.X.R n 8 6 8 8 ",
"8 9 6 8 v L ( ( ' ,.| 4 O t y f h d h j j j p s +.&.&.z f h k j j g s f &.&.p o A ,.,.X.R n 8 6 8 8 ",
"8 8 6 8 v P Q ( ' X.| 4 O i h h h d j j k j p s &.&.&.z d h k k j j f f z =.a + A ,.X.X.R v 8 6 8 8 ",
"9 6 6 6 b L ( ' | ,.{ 4 O i h j h d h j k j p d &.&.&.z f h k j j l h h z -.a + A ,.;.X.R n 8 6 8 8 ",
"6 8 6 9 b P ~ | X.<.| 4 O i h l h d h j j j p s &.*.*.l f h k j j k g g z -.a + A ,.X.;.R n 8 6 8 8 ",
"6 8 6 6 b K ( | X.X.| 4 O i h l h d h j j j p s +.*.*.z d h k k k k g f +.-.a + A ,.;.X.R n 8 8 8 8 ",
"6 8 8 8 v P ( | ,.,.' 4 O i h k h s d h k j p s &.&.*.z d h k k j k h g z -.a + A ,.o.o.U v 8 6 8 8 ",
"8 8 8 8 v P ( o.| ,.| 4 O p h l h d d h l j p s &.&.+.h s j k k j k h d +.-.a + A <.;.;.R n 8 6 8 8 ",
"8 8 8 8 b H ~ | | o.( 4 O i h k h s s g k h p s &.&.h s s h k k j k g g z =.a + Z ;.X.X.I v 8 8 8 8 ",
"8 8 8 8 8 9 6 0 0 0 0 6 6 6 6 6 8 6 8 8 8 8 8 8 8 8 8 8 8 8 8 8 8 8 8 8 8 8 8 8 8 9 8 0 8 8 8 8 8 8 "
};
