/* XPM */
static char *b4ea58712a634f49c7be26e9b839c77cPKHDKqPStvre0gSw[] = {
/* columns rows colors chars-per-pixel */
"50 50 109 2 ",
"   c #030202",
".  c #0A0502",
"X  c #0D0806",
"o  c #0C0B0A",
"O  c #120A06",
"+  c #190E07",
"@  c #150D09",
"#  c #1C110B",
"$  c #0D1011",
"%  c #141414",
"&  c #1B1410",
"*  c #22140D",
"=  c #241913",
"-  c #2D1D15",
";  c #211B18",
":  c #281F19",
">  c #332015",
",  c #3C2316",
"<  c #34251E",
"1  c #3E271A",
"2  c #1F2122",
"3  c #212121",
"4  c #2C2420",
"5  c #2C2729",
"6  c #2E2A2B",
"7  c #302C2D",
"8  c #33302F",
"9  c #2F2F30",
"0  c #332F30",
"q  c #343333",
"w  c #393536",
"e  c #393837",
"r  c #3A3738",
"t  c #3D3A3B",
"y  c #40271A",
"u  c #42291B",
"i  c #4B2E1E",
"p  c #4D301F",
"a  c #4D3020",
"s  c #523222",
"d  c #593624",
"f  c #5C3825",
"g  c #413E3E",
"h  c #613A27",
"j  c #633C28",
"k  c #683F2A",
"l  c #6B412C",
"z  c #72462F",
"x  c #744730",
"c  c #754830",
"v  c #794B31",
"b  c #423F40",
"n  c #3F4041",
"m  c #454444",
"M  c #494646",
"N  c #464748",
"B  c #4C4C4C",
"V  c #555455",
"C  c #585757",
"Z  c #575758",
"A  c #575859",
"S  c #5C5C5C",
"D  c #605F5F",
"F  c #616060",
"G  c gray38",
"H  c #646363",
"J  c #656565",
"K  c #676666",
"L  c #676767",
"P  c #686868",
"I  c #6A6969",
"U  c #6C6B6B",
"Y  c #6B6C6C",
"T  c #6C6C6C",
"R  c #6D6D6D",
"E  c #6F6F6F",
"W  c #6F7070",
"Q  c gray44",
"!  c #717171",
"~  c #737373",
"^  c #737475",
"/  c #747474",
"(  c gray46",
")  c #777676",
"_  c #777777",
"`  c gray47",
"'  c #797979",
"]  c gray48",
"[  c #7B7B7B",
"{  c #7C7C7C",
"}  c #7D7C7C",
"|  c gray49",
" . c #7E7E7E",
".. c gray50",
"X. c #865236",
"o. c #865337",
"O. c #875337",
"+. c #875437",
"@. c #885437",
"#. c #875438",
"$. c #8A5538",
"%. c #807F7F",
"&. c #80807F",
"*. c #818181",
"=. c gray51",
"-. c #838383",
";. c #848383",
":. c #848483",
">. c #848484",
/* pixels */
"7 7 7 7 7 7 7 7 7 7 7 7 7 7 7 7 7 7 7 7 7 7 7 7 7 7 7 7 7 7 7 7 7 7 7 7 7 7 7 7 7 7 7 7 7 7 7 7 7 7 ",
"7 7 7 7 7 7 7 7 7 7 7 7 7 7 7 7 7 7 7 7 7 7 7 7 7 7 7 7 7 7 7 7 7 7 7 7 7 7 7 7 7 7 7 7 7 7 7 7 7 7 ",
"7 7 7 7 7 7 7 7 7 7 7 7 7 7 7 7 7 7 7 7 7 7 7 7 7 7 7 7 7 7 7 7 7 7 7 7 7 7 7 7 7 7 7 7 7 7 7 7 7 7 ",
"7 7 7 7 7 7 7 7 7 7 7 7 7 7 7 7 7 7 7 7 7 7 7 7 7 7 7 6 7 7 7 7 7 7 7 7 7 7 7 7 7 7 7 7 7 7 7 7 7 7 ",
"7 7 7 7 7 7 7 7 7 7 7 7 7 7 7 7 7 7 7 7 7 7 7 7 7 7 7 7 7 7 7 7 7 7 7 7 7 7 7 7 7 7 7 7 7 7 7 7 7 7 ",
"7 7 7 7 7 7 7 7 7 7 7 7 7 7 7 7 7 7 7 7 7 7 7 7 7 7 7 7 7 7 7 7 7 7 7 7 7 7 7 7 7 7 7 7 7 7 7 7 7 7 ",
"7 7 7 7 7 7 7 7 7 7 7 7 7 7 7 7 7 7 7 7 7 7 7 7 7 7 7 7 7 7 7 7 7 7 7 7 7 7 7 7 7 7 7 7 7 7 7 7 7 7 ",
"7 7 7 7 7 7 7 7 7 7 7 7 7 7 7 7 7 7 7 7 7 7 7 7 7 7 7 7 7 7 7 7 7 7 7 7 7 7 7 7 7 7 7 7 7 7 7 7 7 7 ",
"7 7 7 7 7 7 7 7 7 7 7 7 7 7 7 7 7 7 7 7 7 7 7 7 7 7 7 7 7 7 7 7 7 7 7 7 7 7 7 7 7 7 7 7 7 7 7 7 7 7 ",
"7 7 7 7 7 7 7 7 7 7 7 7 7 7 7 7 7 7 7 7 7 7 7 7 7 7 7 7 7 7 7 7 7 7 7 7 7 7 7 7 7 7 7 7 7 7 7 7 7 7 ",
"6 7 7 7 7 7 7 7 7 7 7 7 7 7 7 7 7 7 5 7 7 7 7 7 7 7 7 7 7 7 7 7 7 7 7 7 7 7 7 7 7 7 7 7 7 7 7 7 7 7 ",
"7 7 7 7 7 7 7 7 7 7 7 7 7 7 7 7 7 7 7 7 7 7 5 5 5 5 5 5 7 7 7 7 5 7 7 7 7 7 7 7 7 7 7 7 7 7 7 7 7 7 ",
"7 7 7 7 7 7 7 7 7 7 7 7 7 7 7 6 7 7 7 7 6 5 q m m m M r 5 5 6 6 7 7 7 7 7 7 7 7 7 7 7 7 7 7 7 7 7 7 ",
"7 7 7 7 7 7 7 7 7 7 7 7 7 7 7 7 7 7 5 w g t M P Q R Q S g g t 8 6 7 7 7 7 7 7 7 7 7 7 7 7 7 7 7 7 7 ",
"7 7 7 7 7 7 7 7 7 7 7 7 6 6 7 6 7 w w V I J R { { { { ( J J H m w 7 7 7 7 7 7 7 7 7 7 7 7 7 7 7 7 7 ",
"7 7 7 7 7 7 7 7 7 7 7 7 7 7 7 7 w C D Q { { { { &.=.=.{ { { ] J D B 7 5 7 7 5 7 7 7 7 7 7 7 7 7 7 7 ",
"7 7 7 7 7 7 7 7 7 7 7 7 7 7 5 w S R ` { { =.{ ..] ( [ ] ..&...] ] Y B 7 7 7 7 7 7 7 7 7 7 7 7 7 7 7 ",
"7 7 7 7 7 7 7 7 7 6 7 7 7 7 5 e F Q { &.=.{ -.` r 2 3 B -.&.....=.] U B 7 5 7 7 7 5 7 7 7 7 7 7 7 7 ",
"7 7 7 7 7 7 7 7 7 7 6 7 7 7 w V I ] { { =.I q 6   + . $ q n _ &.{ =.{ R B q 7 7 7 7 7 7 7 7 7 7 7 7 ",
"7 7 7 7 7 7 7 7 7 6 7 7 7 6 m J ( { { ;.J q @ + # a a - * - m / >.%.{ { F w 5 7 7 7 7 7 7 7 7 7 7 7 ",
"7 7 7 7 7 7 7 7 7 7 6 6 w w B I ( { { R q * i p d v +.c j j - M Q { ;.{ H m 7 7 7 7 7 7 7 7 7 7 7 7 ",
"7 7 7 7 7 7 7 7 7 7 7 w V F J ` { { =.9 # p p p c X.X.z j z l * B >.{ { ] K m 7 7 7 7 7 7 7 7 7 7 7 ",
"7 7 7 7 7 7 7 7 7 7 q V I ( %.{ { { { 5 # d j p v X.X.c j c l # m { { %.{ { J b 7 7 7 7 7 7 7 7 7 7 ",
"7 7 7 7 7 7 7 7 7 5 q C R [ { { >.] 0 - 1 d l s v X.X.z j z c j < N ;.=.{ { R m 5 7 7 7 7 7 7 7 7 7 ",
"7 7 7 7 7 7 7 7 7 q B J Q ] { >.Q e = , s l l s v +.X.x d z z v d < M { =.{ ] D m 6 7 7 7 7 7 7 7 7 ",
"7 7 7 7 7 7 7 7 5 t F Q ( ] { >.R $ , d l c l s v +.+.x l z c l v , 3 { ;.{ { Q B 7 7 7 7 7 7 7 7 7 ",
"7 7 7 7 7 7 7 7 7 e S W [ &.%.Q B = , j x x l a v @.X.c f x l c z i 4 S ] %.{ / B 7 7 7 7 7 7 7 7 7 ",
"7 7 7 7 7 7 7 7 5 w F W [ { ;.S o , a h x x l s v @.X.v j l j l z l , & R =.{ Q B 7 7 7 7 7 7 7 7 7 ",
"7 7 7 7 7 7 7 7 6 r S Q ] =.=.A X y f l x x l s v #.#.c l z j d l z , % R =.%.Q B 7 7 7 7 7 7 7 7 7 ",
"7 7 7 7 7 7 7 7 6 r S Q { { :.C X y f l x c l a v X.+.c j l l z z l , % Q =.{ Q B 7 7 7 7 7 7 7 7 7 ",
"7 7 7 7 7 7 5 7 5 e S Q ] { :.Z X y f l x x l s v #.$.c j z c c z z y % R =.{ Q B 5 7 7 6 7 7 7 7 7 ",
"7 7 7 7 7 7 7 7 r B I Q ] ..=.Z X 1 f l x x l s v c v c f z c z z l y % R =.=.( F m 7 7 7 7 7 7 7 7 ",
"7 7 7 7 7 7 7 6 b H Q ( ] &.>.S . 1 f l c c l a v k z x h c c x l z , $ Q =.{ =.( V 7 7 7 7 7 7 7 7 ",
"7 7 7 7 7 7 7 6 b H R ( ] { ( N # 1 f l x c k s v z c c h x x z c l i : S ] =.{ ` V q 6 7 7 7 7 7 7 ",
"7 7 7 7 7 7 7 7 b H Q Q ] =.N @ u p d l x c l s v o.X.c h c x x c j l j ; J =.=.` V 0 6 7 7 7 7 7 7 ",
"7 7 7 7 7 7 7 5 b H Q / ] =.m O a l j l x c l a c #.o.x h z x z c l l l % H >.{ ~ V 0 6 7 7 7 7 7 7 ",
"7 7 7 7 7 7 7 6 m J Q Q ] =.N O a l h l x c l s v #.o.x h x x z x k l l & J >.{ ( V 0 7 7 7 7 7 7 7 ",
"7 7 7 7 7 7 7 6 b J Q Q ] =.m O a l j l x c l s v $.o.x h z c c c k z l & H =.=.` V 0 6 7 7 7 7 7 7 ",
"7 7 7 7 6 7 7 5 b J Q ( ] =.m o a l j l x x l a v $.o.x h x x c d a x l & H =.{ / V 0 6 7 6 7 7 7 7 ",
"7 7 7 7 7 7 6 q M F R ( { &.m O a l j l z c l s v X.o.x h c c f * @ d l & H >.{ ` V t 7 6 7 7 7 7 7 ",
"7 7 7 7 7 7 6 m S J ~ ] { =.N O a l j l x c l s v $.o.x h x f #     , l & J ;.{ Q F V q 7 7 7 7 7 7 ",
"7 7 7 7 7 7 6 M J Q ~ { =.{ n O s l j l x c j s v X.o.x j h *     * l l & D =.%.{ ` S w 5 7 7 7 7 7 ",
"7 7 7 7 7 7 6 m I Q ( { &.N o O a l j l x c l s v X.o.x j l f d i a l l o % D ;.=.] S w 7 7 7 7 7 7 ",
"7 7 7 7 7 7 6 M J Q / { =.9 . > a l j l x c l s v $.$.c h c v c l f l X.a   B >.{ [ S q 5 7 7 7 7 7 ",
"7 7 7 7 7 7 6 m I Q W ..&.q # p d l j l c c l s v +.X.c h x x z l j l X.v # B >.} ` S w 7 7 7 7 7 7 ",
"7 7 7 7 7 7 5 M L W ` ] =.q + d x z h l z c l s v X.#.c h c c z c k k $.v @ B >.{ ` S w 5 7 7 7 7 7 ",
"7 7 7 7 7 7 6 N L / ..{ =.q + d x z h l c c l a v X.X.c j c x z x k l X.v @ B :.%.[ S w 7 7 7 7 7 7 ",
"7 7 7 7 9 6 6 N L / { { =.q + d x c h l l c l s v #.X.c f z z z x k k o.v # B ;.{ ] S w 5 7 7 7 7 7 ",
"7 7 7 7 7 7 6 m L / { { -.q + d l x h h l c l s v X.X.c j x x z x j l o.v + B >.{ ] S w 5 6 7 7 7 7 ",
"7 7 7 7 7 7 6 M L ( { ..=.q + d x x h d l c l a v $.v j j z x z x l l X.v @ B >.=.] S w 6 6 7 6 6 7 "
};
